<svg width="24" height="24" viewBox="0 0 24 24" fill="none" xmlns="http://www.w3.org/2000/svg">
<g clip-path="url(#clip0_319_152)">
<mask id="mask0_319_152" style="mask-type:alpha" maskUnits="userSpaceOnUse" x="0" y="0" width="24" height="24">
<path d="M12 24C18.6274 24 24 18.6274 24 12C24 5.37258 18.6274 0 12 0C5.37258 0 0 5.37258 0 12C0 18.6274 5.37258 24 12 24Z" fill="black"/>
</mask>
<g mask="url(#mask0_319_152)">
<path d="M12 24C18.6274 24 24 18.6274 24 12C24 5.37258 18.6274 0 12 0C5.37258 0 0 5.37258 0 12C0 18.6274 5.37258 24 12 24Z" fill="black"/>
<path d="M19.9344 21.0026L9.21888 7.19995H7.19995V16.796H8.8151V9.2511L18.6665 21.9793C19.111 21.6818 19.5345 21.3553 19.9344 21.0026Z" fill="url(#paint0_linear_319_152)"/>
<path d="M16.9333 7.19995H15.3333V16.8H16.9333V7.19995Z" fill="url(#paint1_linear_319_152)"/>
</g>
</g>
<defs>
<linearGradient id="paint0_linear_319_152" x1="14.5333" y1="15.5333" x2="19.2666" y2="21.4" gradientUnits="userSpaceOnUse">
<stop stop-color="white"/>
<stop offset="1" stop-color="white" stop-opacity="0"/>
</linearGradient>
<linearGradient id="paint1_linear_319_152" x1="16.1333" y1="7.19995" x2="16.1065" y2="14.25" gradientUnits="userSpaceOnUse">
<stop stop-color="white"/>
<stop offset="1" stop-color="white" stop-opacity="0"/>
</linearGradient>
<clipPath id="clip0_319_152">
<rect width="24" height="24" fill="white"/>
</clipPath>
</defs>
</svg>
