<svg xmlns:xlink="http://www.w3.org/1999/xlink"  viewBox="0 0 226 22" fill="none" xmlns="http://www.w3.org/2000/svg" class="cursor-pointer text-purple80 w-full monochrome:text-black md:h-[22px] h-[12px] md:monochrome:h-[40px] monochrome:h-[22px]"><path fill-rule="evenodd" clip-rule="evenodd" d="M225.376 7.252c-.293-.8-1.072-.526-.994.273.506 5.107-3.529 9.962-9.845 10.04-4.016.038-8.5-2.3-8.5-6.707 0-4.834 5.498-6.979 9.436-5.283l5.049-3.743C218.143.565 215.609 0 212.529 0c-6.726 0-13.588 3.665-13.51 10.8 0 4.21 2.476 7.7 6.336 9.552 2.047.994 4.445 1.501 7.154 1.501 6.726.195 13.549-3.996 13.491-11.034-.02-1.286-.215-2.475-.624-3.567Zm-.449-5.634a246.317 246.317 0 0 0-3.976 2.96c-2.207 1.664-4.541 3.423-5.985 4.39l-.106.072c-.709.486-.888.609-1.688.18-.507-.272-.955-.564-1.52-.935-.117-.078-.234-.136-.351-.195l-.039-.02a.944.944 0 0 0-.526-.038.842.842 0 0 0-.585.585.85.85 0 0 0 .039.545l.195.351a113.082 113.082 0 0 0 3.06 4.523c.468.624.858.624 1.404.059 3.216-3.451 7.505-8.13 10.702-11.736.585-.643.039-1.228-.624-.741ZM94.295 20.742c-1.638-.448-3.08-1.053-4.308-1.793v-5.166a18.013 18.013 0 0 0 4.171 1.871c1.521.468 3.061.682 4.64.682 1.13 0 1.969-.097 2.515-.311.546-.195.819-.527.819-.975 0-.39-.195-.702-.566-.936-.39-.234-1.052-.429-2.027-.604l-2.846-.507c-2.36-.429-4.094-1.15-5.205-2.184-1.092-1.033-1.657-2.397-1.657-4.093 0-1.287.37-2.418 1.13-3.392.76-.975 1.891-1.716 3.431-2.262 1.52-.546 3.412-.819 5.634-.819 1.911 0 3.568.195 4.952.585 1.384.39 2.534.858 3.431 1.423v4.952c-.838-.468-1.911-.877-3.217-1.228s-2.709-.507-4.23-.507c-2.456 0-3.665.39-3.665 1.19 0 .214.059.409.195.545.136.136.37.273.702.37.331.098.819.195 1.423.273l3.177.507c1.56.254 2.847.643 3.841 1.15.994.507 1.735 1.17 2.222 1.989.488.818.741 1.832.741 3.04 0 1.366-.409 2.574-1.248 3.607-.838 1.034-2.008 1.833-3.528 2.398-1.521.566-3.275.838-5.264.838a18.559 18.559 0 0 1-5.263-.643ZM8.285 17h7.486l1.209 3.821h7.232L17.233.877H7.038L0 20.82h7.038L8.285 17Zm3.743-11.58 2.456 7.603H9.572l2.456-7.603Zm33.18 15.401v-5.81h-11.21V.878h-7.115V20.82h18.325Zm20.878-5.81v5.81H47.761V.877h7.116v14.134h11.21Zm21.132 5.79v-5.048H75.756V13.08h10.8V8.402h-10.8V5.946H87.12V.877H68.64v19.924h18.577Zm27.507-1.072c.351.507.819.917 1.443 1.21.624.311 1.306.448 2.066.448.76 0 1.443-.137 2.047-.43a3.61 3.61 0 0 0 1.423-1.208 3.036 3.036 0 0 0 .507-1.696c0-.624-.156-1.17-.507-1.677-.331-.507-.819-.896-1.423-1.189-.604-.292-1.287-.429-2.047-.429-.76 0-1.462.137-2.066.43-.624.292-1.092.681-1.443 1.188a2.895 2.895 0 0 0-.526 1.677c0 .604.175 1.17.526 1.676ZM142.524 17h-7.486l-1.228 3.821h-7.037L133.81.877h10.196l6.979 19.943h-7.233L142.524 17Zm-1.286-3.977-2.457-7.603-2.456 7.603h4.913Zm11.54 4.094c.878 1.404 2.145 2.476 3.782 3.236 1.638.741 3.568 1.111 5.79 1.13 2.203 0 4.133-.37 5.771-1.13 1.637-.74 2.904-1.832 3.781-3.236.878-1.403 1.326-3.06 1.326-4.97V.895h-7.096V12.01c0 1.15-.331 2.027-.994 2.65-.643.625-1.579.937-2.788.937-1.208 0-2.144-.312-2.807-.936-.663-.624-.994-1.501-.994-2.651V.897h-7.096v11.248c0 1.91.448 3.568 1.325 4.971Zm44.136-10.624h-6.784V20.82h-7.116V6.492h-6.92V.877h20.82v5.615Z" fill="currentColor"></path></svg>