<?xml version="1.0" encoding="utf-8"?>
<!-- Generator: Adobe Illustrator 15.1.0, SVG Export Plug-In . SVG Version: 6.00 Build 0)  -->
<!DOCTYPE svg PUBLIC "-//W3C//DTD SVG 1.0//EN" "http://www.w3.org/TR/2001/REC-SVG-20010904/DTD/svg10.dtd">
<svg version="1.0" id="Ebene_1" xmlns="http://www.w3.org/2000/svg" xmlns:xlink="http://www.w3.org/1999/xlink" x="0px" y="0px"
	 width="283.464px" height="136.274px" viewBox="0 0 283.464 136.274" enable-background="new 0 0 283.464 136.274"
	 xml:space="preserve">
<g>
	<g>
		<path fill="#1D1D1B" d="M0,0v136.274h143.466h139.999V0H0z M68.426,91.804c0,0.522-0.516,0.995-1.097,0.995h-5.842
			c-0.588,0-1.06-0.473-1.06-0.995V71.024H34.933v20.779c0,0.522-0.462,0.995-1.049,0.995h-5.841c-0.58,0-1.114-0.473-1.114-0.995
			V45.261c0-0.595,0.403-0.856,0.925-0.929l6.159-0.843c0.648-0.063,0.92,0.459,0.92,0.916v20.128h25.494V45.261
			c0-0.595,0.398-0.856,0.921-0.929l6.173-0.843c0.65-0.063,0.906,0.459,0.906,0.916V91.804z M95.116,92.799H76.311
			c-0.526,0-1.049-0.473-1.049-1.047V45.389c0-0.587,0.522-1.057,1.049-1.057h18.805c15.354,0,22.302,4.994,22.302,24.201
			C117.417,87.817,110.469,92.799,95.116,92.799z M277.671,130.479H143.466V5.791h134.206V130.479z"/>
		<path fill="#1D1D1B" d="M94.146,50.366H83.259v36.396h10.887c10.545,0,15.137-2.568,15.137-18.292
			C109.283,52.74,104.691,50.366,94.146,50.366z"/>
	</g>
	<path fill="#1D1D1B" d="M230.481,72.176h-15.999v15.998c0,0.987-0.487,1.479-1.304,1.479h-5.246c-0.825,0-1.325-0.492-1.325-1.391
		V72.256h-16.074c-0.995,0-1.402-0.566-1.402-1.398v-4.595c0-0.807,0.492-1.297,1.402-1.297h16.002v-16.09
		c0-0.91,0.479-1.402,1.221-1.402h5.323c0.825,0,1.402,0.492,1.402,1.402v15.997h15.999c0.91,0,1.477,0.584,1.477,1.391v4.595
		C231.958,71.689,231.479,72.176,230.481,72.176z"/>
</g>
</svg>
